<svg width="14" height="25" viewBox="0 0 14 25" fill="none" xmlns="http://www.w3.org/2000/svg">
<path d="M9.8775 2.98154H13.5776C13.7799 2.98154 13.9438 2.81756 13.9438 2.61531C13.9438 2.41306 13.7799 2.24908 13.5776 2.24908H9.8775C9.6752 2.24908 9.51128 2.41306 9.51128 2.61531C9.51128 2.81756 9.67525 2.98154 9.8775 2.98154Z" fill="#4F667A"/>
<path d="M9.8775 4.67245H11.7275C11.9298 4.67245 12.0937 4.50848 12.0937 4.30623C12.0937 4.10397 11.9298 3.94 11.7275 3.94H9.8775C9.6752 3.94 9.51128 4.10397 9.51128 4.30623C9.51128 4.50848 9.67525 4.67245 9.8775 4.67245Z" fill="#4F667A"/>
<path d="M13.5783 5.64905H9.8782C9.67589 5.64905 9.51197 5.81302 9.51197 6.01527C9.51197 6.21752 9.67589 6.38149 9.8782 6.38149H13.5783C13.7806 6.38149 13.9445 6.21752 13.9445 6.01527C13.9445 5.81302 13.7805 5.64905 13.5783 5.64905Z" fill="#4F667A"/>
<path d="M9.8775 8.07248H11.7275C11.9298 8.07248 12.0937 7.9085 12.0937 7.70625C12.0937 7.504 11.9298 7.34003 11.7275 7.34003H9.8775C9.6752 7.34003 9.51128 7.504 9.51128 7.70625C9.51128 7.9085 9.67525 8.07248 9.8775 8.07248Z" fill="#4F667A"/>
<path d="M13.5783 9.02393H9.8782C9.67589 9.02393 9.51197 9.1879 9.51197 9.39015C9.51197 9.59241 9.67589 9.75638 9.8782 9.75638H13.5783C13.7806 9.75638 13.9445 9.59241 13.9445 9.39015C13.9445 9.1879 13.7805 9.02393 13.5783 9.02393Z" fill="#4F667A"/>
<path d="M9.8775 11.4473H11.7275C11.9298 11.4473 12.0937 11.2833 12.0937 11.0811C12.0937 10.8788 11.9298 10.7148 11.7275 10.7148H9.8775C9.6752 10.7148 9.51128 10.8788 9.51128 11.0811C9.51128 11.2833 9.67525 11.4473 9.8775 11.4473Z" fill="#4F667A"/>
<path d="M13.5783 12.4306H9.8782C9.67589 12.4306 9.51197 12.5946 9.51197 12.7968C9.51197 12.9991 9.67589 13.1631 9.8782 13.1631H13.5783C13.7806 13.1631 13.9445 12.9991 13.9445 12.7968C13.9445 12.5946 13.7805 12.4306 13.5783 12.4306Z" fill="#4F667A"/>
<path d="M11.7275 14.1215H9.8775C9.6752 14.1215 9.51128 14.2855 9.51128 14.4877C9.51128 14.69 9.6752 14.854 9.8775 14.854H11.7275C11.9298 14.854 12.0937 14.69 12.0937 14.4877C12.0937 14.2855 11.9298 14.1215 11.7275 14.1215Z" fill="#4F667A"/>
<path d="M10.4267 19.7869C10.4267 21.1932 9.87493 22.5111 8.87391 23.499C7.89047 24.4687 6.59354 25 5.21409 25C5.18919 25 5.16429 25 5.13938 24.9995C4.91867 24.9961 4.7004 24.9795 4.48457 24.9487C3.38199 24.7935 2.35753 24.2876 1.54939 23.4872C0.583534 22.5312 0.0337074 21.2616 0.00147955 19.9134C-0.0419792 18.0862 0.874562 16.3737 2.40587 15.3937V2.80773C2.40587 1.51275 3.28677 0.419938 4.48115 0.0971718C4.71456 0.0336927 4.96018 0 5.2136 0C6.76152 0 8.02133 1.25933 8.02133 2.80773V15.3937C9.51016 16.3478 10.4267 18.0114 10.4267 19.7869Z" fill="#E9F5FF"/>
<path d="M10.4267 19.7869C10.4267 21.1932 9.87488 22.5111 8.87387 23.499C7.89043 24.4687 6.5935 25 5.21405 25C4.30142 25 3.74915 25 3.74915 25C3.99721 25 4.24282 24.9829 4.48453 24.9487C5.58516 24.7944 6.60278 24.2944 7.40896 23.499C8.41047 22.5111 8.96176 21.1932 8.96176 19.7869C8.96176 18.0114 8.04522 17.8215 6.55639 16.8674V2.80773C6.55639 1.51275 5.67501 0.419938 4.48112 0.0971718C4.71452 0.0336927 4.96014 0 5.21357 0C6.76148 0 8.02129 1.25933 8.02129 2.80773V15.3937C9.51012 16.3478 10.4267 18.0114 10.4267 19.7869Z" fill="#CDEAF7"/>
<path d="M8.96178 19.7942C8.96178 20.805 8.56528 21.7528 7.84504 22.4628C7.13847 23.1601 6.20386 23.5424 5.21017 23.5424C5.19308 23.5424 5.17648 23.5424 5.15988 23.5419C4.97237 23.5395 4.78682 23.5224 4.60419 23.4926C3.84489 23.3671 3.14076 23.0087 2.58019 22.4535C1.88485 21.7655 1.48884 20.8534 1.46589 19.886C1.43366 18.5203 2.14658 17.2438 3.32631 16.5544C3.66177 16.3586 3.87077 15.9948 3.87077 15.6061V2.81506C3.87077 2.29453 4.16863 1.84187 4.60322 1.61921C4.78633 1.52497 4.99386 1.47223 5.21359 1.47223C5.95385 1.47223 6.55592 2.07479 6.55592 2.81506V15.6061C6.55592 15.9948 6.76492 16.3586 7.10038 16.5544C8.24837 17.2253 8.96178 18.4665 8.96178 19.7942Z" fill="#FF6E6E"/>
<path d="M8.96178 19.7942C8.96178 20.805 8.56528 21.7528 7.84504 22.4628C7.13847 23.1601 6.20386 23.5424 5.21017 23.5424C5.19308 23.5424 5.17648 23.5424 5.15988 23.5419C4.97237 23.5395 4.78682 23.5224 4.60419 23.4926C5.36448 23.3686 6.06568 23.0141 6.62429 22.4628C7.34453 21.7528 7.74103 20.805 7.74103 19.7942C7.74103 18.4665 7.02763 17.2253 5.87963 16.5544C5.54417 16.3586 5.33518 15.9948 5.33518 15.6061V2.81506C5.33518 2.29453 5.03732 1.84236 4.60322 1.61921C4.78633 1.52497 4.99386 1.47223 5.21359 1.47223C5.95385 1.47223 6.55593 2.07479 6.55593 2.81506V15.6061C6.55593 15.9948 6.76492 16.3586 7.10038 16.5544C8.24837 17.2253 8.96178 18.4665 8.96178 19.7942Z" fill="#F44E92"/>
<path d="M6.55591 2.81506V6.01538H3.87075V2.81506C3.87075 2.29453 4.16861 1.84187 4.6032 1.61921C4.78631 1.52497 4.99384 1.47223 5.21358 1.47223C5.95384 1.47223 6.55591 2.07479 6.55591 2.81506Z" fill="#4F667A"/>
<path d="M6.55594 2.81506V6.01538H5.33518V2.81506C5.33518 2.29453 5.03732 1.84236 4.60322 1.61921C4.78633 1.52497 4.99386 1.47223 5.2136 1.47223C5.95386 1.47223 6.55594 2.07479 6.55594 2.81506Z" fill="#3A5366"/>
</svg>
